Poster: 
http://imgh.us/threestoogesver3xlg.jpg

Another Fine Release Brought to you from BBnRG
===================================================================================================
The Three Stooges (2012) DVDRip x264 AC3-BBnRG

Format : Matroska
Format version : Version 2
File size : 500 MiB
Duration : 1h 32mn
Overall bit rate : 759 Kbps

Video
ID : 1
Format : AVC
Format/Info : Advanced Video Codec
Format profile : High@L2.2
Format settings, CABAC : Yes
Format settings, ReFrames : 8 frames
Codec ID : V_MPEG4/ISO/AVC
Duration : 1h 32mn
Bit rate : 626 Kbps
Width : 624 pixels
Height : 336 pixels
Display aspect ratio : 1.857
Frame rate mode : Variable
Frame rate : 23.976 fps
Color space : YUV
Chroma subsampling : 4:2:0
Bit depth : 8 bits
Scan type : Progressive
Bits/(Pixel*Frame) : 0.125
Stream size : 405 MiB (81%)
Writing library : x264 core 112

Audio
ID : 2
Format : AC-3
Format/Info : Audio Coding 3
Mode extension : CM (complete main)
Codec ID : A_AC3
Duration : 1h 32mn
Bit rate mode : Constant
Bit rate : 128 Kbps
Channel(s) : 2 channels
Channel positions : Front: L R
Sampling rate : 48.0 KHz
Bit depth : 16 bits
Compression mode : Lossy
Stream size : 84.3 MiB (17%)
___ _ ___ _ _ _ 

Title: The Three Stooges (2012)

92 min - Comedy - 22 August 2012 (UK)

Plot:
While trying to save their childhood orphanage, Moe, Larry, and Curly inadvertently stumble into a 
murder plot and wind up starring in a reality TV show.

IMDb Link: http://www.imdb.com/title/tt0383010/
___ _ _ _ 

Encoder: SMiLE 

Source:
AMIABLE (Thanks!) 

Notes:
Well this is the result of me getting really bored. Saw this and decided to do something with it,
could have upscaled it but I decided to just do a little compression down to x264. Ran it through
my custom encode settings and here you have it. Simple. Will do a proper nice quality XviD when the
bluray hits, shouldn't be too long at all. Stupid Movie btw. But yeah... Enjoy 

We're still alive! 
___ _ 

CrEwSaDe, Feel-Free, DiVERSiTY, TRiNiTY, WBZ, BHRG, mSD, INFERNO, CRYS, 26K, PRESTiGE & Many More...

SCREENS: 
http://imgh.us/vlcsnap2012070521h45m04.png 
http://imgh.us/vlcsnap2012070521h43m54.png 
http://imgh.us/vlcsnap2012070521h40m44.png 
http://imgh.us/vlcsnap2012070521h46m44.png 
http://imgh.us/vlcsnap2012070521h45m18.png